<svg width="26" height="26" viewBox="0 0 26 26" fill="none" xmlns="http://www.w3.org/2000/svg">
<path d="M13 25C19.6274 25 25 19.6274 25 13C25 6.37258 19.6274 1 13 1C6.37258 1 1 6.37258 1 13C1 19.6274 6.37258 25 13 25Z" stroke="#A79D94" stroke-width="2" stroke-linecap="round" stroke-linejoin="round"/>
<path d="M13.0002 25C16.2002 22.0909 17.8002 18.0909 17.8002 13C17.8002 7.90909 16.2002 3.90909 13.0002 1C9.8002 3.90909 8.2002 7.90909 8.2002 13C8.2002 18.0909 9.8002 22.0909 13.0002 25Z" stroke="#A79D94" stroke-width="2" stroke-linecap="round" stroke-linejoin="round"/>
<path d="M1.6001 9.39999H24.4001M1.6001 16.6H24.4001" stroke="#A79D94" stroke-width="2" stroke-linecap="round" stroke-linejoin="round"/>
</svg>
