<svg width="63" height="64" viewBox="0 0 63 64" fill="none" xmlns="http://www.w3.org/2000/svg">
<path d="M31.1999 0.319824C13.9686 0.319824 0 14.5035 0 31.9999C0 49.4963 13.9686 63.6799 31.1999 63.6799C48.4312 63.6799 62.3998 49.4963 62.3998 31.9999C62.3998 14.5035 48.4312 0.319824 31.1999 0.319824ZM18.9517 22.0999H43.3904C44.6865 22.0999 44.0194 23.7886 43.314 24.2221C42.6086 24.6539 32.8448 30.6472 32.4808 30.8696C32.1168 31.092 31.6456 31.1983 31.1718 31.1983C30.6977 31.1983 30.2265 31.092 29.8627 30.8696C29.4987 30.6472 19.7347 24.6539 19.0293 24.2221C18.3241 23.7886 17.6568 22.0999 18.9517 22.0999ZM44.1999 40.2499C44.1999 40.9428 43.3819 41.8999 42.7554 41.8999H19.6444C19.018 41.8999 18.1999 40.9428 18.1999 40.2499C18.1999 40.2499 18.1999 28.5203 18.1999 28.2157C18.1999 27.9128 18.1944 27.518 18.7585 27.8548C19.5597 28.3318 29.3718 34.2075 29.8627 34.5007C30.3535 34.794 30.6977 34.8292 31.1718 34.8292C31.6456 34.8292 31.9898 34.794 32.4808 34.5007C32.9717 34.2075 42.8401 28.3334 43.6413 27.8564C44.2055 27.5196 44.1999 27.9144 44.1999 28.2174C44.1999 28.5219 44.1999 40.2499 44.1999 40.2499Z" fill="#2E9E49"/>
</svg>
