<svg width="63" height="64" viewBox="0 0 63 64" fill="none" xmlns="http://www.w3.org/2000/svg">
<path d="M31.2 0.319824C13.9685 0.319824 0 14.5032 0 31.9998C0 49.4964 13.9685 63.6798 31.2 63.6798C48.4315 63.6798 62.4 49.4964 62.4 31.9998C62.4 14.5032 48.4315 0.319824 31.2 0.319824ZM23.5625 45.1305H17.2445V24.4857H23.5625V45.1305ZM20.3645 21.9513C18.369 21.9513 17.0788 20.5158 17.0788 18.7404C17.0788 16.9287 18.408 15.5361 20.4457 15.5361C22.4835 15.5361 23.7315 16.9287 23.7705 18.7404C23.7705 20.5158 22.4835 21.9513 20.3645 21.9513ZM46.6375 45.1305H40.3195V33.6894C40.3195 31.0263 39.403 29.2179 37.1183 29.2179C35.373 29.2179 34.3363 30.4422 33.878 31.6203C33.709 32.0394 33.6668 32.6334 33.6668 33.2241V45.1272H27.3455V31.0692C27.3455 28.4919 27.2642 26.337 27.1797 24.4824H32.669L32.9583 27.3501H33.085C33.917 26.0037 35.9548 24.0171 39.364 24.0171C43.5208 24.0171 46.6375 26.8452 46.6375 32.9238V45.1305Z" fill="#0D5BBA"/>
</svg>
